<mxfile host="app.diagrams.net" modified="2023-05-05T15:38:38.366Z" agent="Mozilla/5.0 (Windows NT 10.0; Win64; x64) AppleWebKit/537.36 (KHTML, like Gecko) Chrome/112.0.0.0 Safari/537.36" etag="ihQLtZAbniciLZx20yLA" version="21.2.9" type="github">
  <diagram id="0Zi-DuWe4pThfq4NPJX8" name="Page-1">
    <mxGraphModel dx="1434" dy="740" grid="1" gridSize="10" guides="1" tooltips="1" connect="1" arrows="1" fold="1" page="1" pageScale="1" pageWidth="827" pageHeight="1169" math="0" shadow="0">
      <root>
        <mxCell id="0" />
        <mxCell id="1" parent="0" />
        <mxCell id="J0QvIkvwXVLmpFwyTLTm-3" value="" style="rounded=0;whiteSpace=wrap;html=1;" parent="1" vertex="1">
          <mxGeometry x="200" y="70" width="130" height="40" as="geometry" />
        </mxCell>
        <mxCell id="J0QvIkvwXVLmpFwyTLTm-5" value="View.Main" style="text;html=1;strokeColor=none;fillColor=none;align=center;verticalAlign=middle;whiteSpace=wrap;rounded=0;" parent="1" vertex="1">
          <mxGeometry x="235" y="75" width="60" height="30" as="geometry" />
        </mxCell>
        <mxCell id="J0QvIkvwXVLmpFwyTLTm-8" value="" style="rounded=0;whiteSpace=wrap;html=1;" parent="1" vertex="1">
          <mxGeometry x="60" y="70" width="130" height="40" as="geometry" />
        </mxCell>
        <mxCell id="J0QvIkvwXVLmpFwyTLTm-9" value="&amp;lt;&amp;lt;Actor&amp;gt;&amp;gt;&lt;br&gt;Private User" style="text;html=1;strokeColor=none;fillColor=none;align=center;verticalAlign=middle;whiteSpace=wrap;rounded=0;" parent="1" vertex="1">
          <mxGeometry x="80" y="75" width="95" height="30" as="geometry" />
        </mxCell>
        <mxCell id="J0QvIkvwXVLmpFwyTLTm-11" value="" style="endArrow=classic;html=1;rounded=0;" parent="1" edge="1">
          <mxGeometry width="50" height="50" relative="1" as="geometry">
            <mxPoint x="130" y="140" as="sourcePoint" />
            <mxPoint x="260" y="140" as="targetPoint" />
          </mxGeometry>
        </mxCell>
        <mxCell id="J0QvIkvwXVLmpFwyTLTm-14" value="Requests the score&lt;br&gt;of his sensor(s)&amp;nbsp;" style="text;html=1;strokeColor=none;fillColor=none;align=center;verticalAlign=middle;whiteSpace=wrap;rounded=0;" parent="1" vertex="1">
          <mxGeometry x="130" y="150" width="130" height="30" as="geometry" />
        </mxCell>
        <mxCell id="J0QvIkvwXVLmpFwyTLTm-26" value="" style="endArrow=none;html=1;rounded=0;entryX=0.5;entryY=1;entryDx=0;entryDy=0;" parent="1" edge="1">
          <mxGeometry width="50" height="50" relative="1" as="geometry">
            <mxPoint x="260.5" y="430" as="sourcePoint" />
            <mxPoint x="260" y="110" as="targetPoint" />
          </mxGeometry>
        </mxCell>
        <mxCell id="J0QvIkvwXVLmpFwyTLTm-27" value="" style="endArrow=none;html=1;rounded=0;entryX=0.5;entryY=1;entryDx=0;entryDy=0;" parent="1" edge="1">
          <mxGeometry width="50" height="50" relative="1" as="geometry">
            <mxPoint x="130" y="430" as="sourcePoint" />
            <mxPoint x="130" y="110" as="targetPoint" />
          </mxGeometry>
        </mxCell>
        <mxCell id="J0QvIkvwXVLmpFwyTLTm-30" value="getPoints(user_id)" style="text;html=1;strokeColor=none;fillColor=none;align=center;verticalAlign=middle;whiteSpace=wrap;rounded=0;" parent="1" vertex="1">
          <mxGeometry x="260" y="150" width="140" height="30" as="geometry" />
        </mxCell>
        <mxCell id="J0QvIkvwXVLmpFwyTLTm-46" value="" style="endArrow=none;dashed=1;html=1;dashPattern=1 3;strokeWidth=2;rounded=0;" parent="1" edge="1">
          <mxGeometry width="50" height="50" relative="1" as="geometry">
            <mxPoint x="260" y="360" as="sourcePoint" />
            <mxPoint x="410" y="360" as="targetPoint" />
          </mxGeometry>
        </mxCell>
        <mxCell id="J0QvIkvwXVLmpFwyTLTm-47" value="" style="endArrow=none;html=1;rounded=0;" parent="1" edge="1">
          <mxGeometry width="50" height="50" relative="1" as="geometry">
            <mxPoint x="260" y="360" as="sourcePoint" />
            <mxPoint x="270" y="350" as="targetPoint" />
          </mxGeometry>
        </mxCell>
        <mxCell id="J0QvIkvwXVLmpFwyTLTm-48" value="" style="endArrow=none;html=1;rounded=0;" parent="1" edge="1">
          <mxGeometry width="50" height="50" relative="1" as="geometry">
            <mxPoint x="260" y="360" as="sourcePoint" />
            <mxPoint x="270" y="370" as="targetPoint" />
            <Array as="points">
              <mxPoint x="270" y="370" />
            </Array>
          </mxGeometry>
        </mxCell>
        <mxCell id="J0QvIkvwXVLmpFwyTLTm-49" value="" style="endArrow=classic;html=1;rounded=0;" parent="1" edge="1">
          <mxGeometry width="50" height="50" relative="1" as="geometry">
            <mxPoint x="260" y="380" as="sourcePoint" />
            <mxPoint x="130" y="380" as="targetPoint" />
          </mxGeometry>
        </mxCell>
        <mxCell id="J0QvIkvwXVLmpFwyTLTm-50" value="return points: int" style="text;html=1;strokeColor=none;fillColor=none;align=center;verticalAlign=middle;whiteSpace=wrap;rounded=0;" parent="1" vertex="1">
          <mxGeometry x="280" y="370" width="100" height="30" as="geometry" />
        </mxCell>
        <mxCell id="J0QvIkvwXVLmpFwyTLTm-52" value="Display the user&#39;s points" style="text;html=1;strokeColor=none;fillColor=none;align=center;verticalAlign=middle;whiteSpace=wrap;rounded=0;" parent="1" vertex="1">
          <mxGeometry x="147.5" y="380" width="95" height="30" as="geometry" />
        </mxCell>
        <mxCell id="tWReDUVrI50OzmOSi_4m-1" value="" style="rounded=0;whiteSpace=wrap;html=1;" parent="1" vertex="1">
          <mxGeometry x="620" y="70" width="130" height="40" as="geometry" />
        </mxCell>
        <mxCell id="tWReDUVrI50OzmOSi_4m-2" value="Model.User (Class)" style="text;html=1;strokeColor=none;fillColor=none;align=center;verticalAlign=middle;whiteSpace=wrap;rounded=0;" parent="1" vertex="1">
          <mxGeometry x="655" y="75" width="60" height="30" as="geometry" />
        </mxCell>
        <mxCell id="tWReDUVrI50OzmOSi_4m-3" value="" style="endArrow=none;html=1;rounded=0;entryX=0.5;entryY=1;entryDx=0;entryDy=0;" parent="1" edge="1">
          <mxGeometry width="50" height="50" relative="1" as="geometry">
            <mxPoint x="680" y="430" as="sourcePoint" />
            <mxPoint x="680" y="110" as="targetPoint" />
          </mxGeometry>
        </mxCell>
        <mxCell id="tWReDUVrI50OzmOSi_4m-4" value="" style="rounded=0;whiteSpace=wrap;html=1;" parent="1" vertex="1">
          <mxGeometry x="480" y="70" width="130" height="40" as="geometry" />
        </mxCell>
        <mxCell id="tWReDUVrI50OzmOSi_4m-5" value="Model.UserFunction" style="text;html=1;strokeColor=none;fillColor=none;align=center;verticalAlign=middle;whiteSpace=wrap;rounded=0;" parent="1" vertex="1">
          <mxGeometry x="507.5" y="75" width="75" height="30" as="geometry" />
        </mxCell>
        <mxCell id="tWReDUVrI50OzmOSi_4m-6" value="" style="endArrow=none;html=1;rounded=0;entryX=0.5;entryY=1;entryDx=0;entryDy=0;" parent="1" target="tWReDUVrI50OzmOSi_4m-4" edge="1">
          <mxGeometry width="50" height="50" relative="1" as="geometry">
            <mxPoint x="545" y="430" as="sourcePoint" />
            <mxPoint x="620" y="180" as="targetPoint" />
          </mxGeometry>
        </mxCell>
        <mxCell id="tWReDUVrI50OzmOSi_4m-7" value="" style="endArrow=classic;html=1;rounded=0;exitX=0.988;exitY=0.5;exitDx=0;exitDy=0;exitPerimeter=0;" parent="1" source="tWReDUVrI50OzmOSi_4m-17" edge="1">
          <mxGeometry width="50" height="50" relative="1" as="geometry">
            <mxPoint x="540" y="185" as="sourcePoint" />
            <mxPoint x="680" y="185" as="targetPoint" />
          </mxGeometry>
        </mxCell>
        <mxCell id="tWReDUVrI50OzmOSi_4m-8" value="getPoints(user_id)" style="text;html=1;strokeColor=none;fillColor=none;align=center;verticalAlign=middle;whiteSpace=wrap;rounded=0;" parent="1" vertex="1">
          <mxGeometry x="545" y="180" width="140" height="30" as="geometry" />
        </mxCell>
        <mxCell id="tWReDUVrI50OzmOSi_4m-9" value="" style="endArrow=none;dashed=1;html=1;dashPattern=1 3;strokeWidth=2;rounded=0;" parent="1" edge="1">
          <mxGeometry width="50" height="50" relative="1" as="geometry">
            <mxPoint x="547.5" y="340" as="sourcePoint" />
            <mxPoint x="680" y="340" as="targetPoint" />
          </mxGeometry>
        </mxCell>
        <mxCell id="tWReDUVrI50OzmOSi_4m-10" value="" style="endArrow=none;html=1;rounded=0;" parent="1" edge="1">
          <mxGeometry width="50" height="50" relative="1" as="geometry">
            <mxPoint x="547.5" y="340" as="sourcePoint" />
            <mxPoint x="557.5" y="330" as="targetPoint" />
          </mxGeometry>
        </mxCell>
        <mxCell id="tWReDUVrI50OzmOSi_4m-11" value="" style="endArrow=none;html=1;rounded=0;" parent="1" edge="1">
          <mxGeometry width="50" height="50" relative="1" as="geometry">
            <mxPoint x="547.5" y="340" as="sourcePoint" />
            <mxPoint x="557.5" y="350" as="targetPoint" />
            <Array as="points">
              <mxPoint x="557.5" y="350" />
            </Array>
          </mxGeometry>
        </mxCell>
        <mxCell id="tWReDUVrI50OzmOSi_4m-12" value="return points: int" style="text;html=1;strokeColor=none;fillColor=none;align=center;verticalAlign=middle;whiteSpace=wrap;rounded=0;" parent="1" vertex="1">
          <mxGeometry x="570" y="350" width="90" height="30" as="geometry" />
        </mxCell>
        <mxCell id="tWReDUVrI50OzmOSi_4m-13" value="" style="rounded=0;whiteSpace=wrap;html=1;" parent="1" vertex="1">
          <mxGeometry x="341.5" y="70" width="130" height="40" as="geometry" />
        </mxCell>
        <mxCell id="tWReDUVrI50OzmOSi_4m-14" value="Controller.Service" style="text;html=1;strokeColor=none;fillColor=none;align=center;verticalAlign=middle;whiteSpace=wrap;rounded=0;" parent="1" vertex="1">
          <mxGeometry x="376.5" y="75" width="60" height="30" as="geometry" />
        </mxCell>
        <mxCell id="tWReDUVrI50OzmOSi_4m-15" value="" style="endArrow=none;html=1;rounded=0;entryX=0.5;entryY=1;entryDx=0;entryDy=0;" parent="1" edge="1">
          <mxGeometry width="50" height="50" relative="1" as="geometry">
            <mxPoint x="406" y="430" as="sourcePoint" />
            <mxPoint x="406" y="110" as="targetPoint" />
          </mxGeometry>
        </mxCell>
        <mxCell id="tWReDUVrI50OzmOSi_4m-16" value="" style="endArrow=classic;html=1;rounded=0;" parent="1" edge="1">
          <mxGeometry width="50" height="50" relative="1" as="geometry">
            <mxPoint x="407.5" y="164.86" as="sourcePoint" />
            <mxPoint x="547.5" y="164.86" as="targetPoint" />
          </mxGeometry>
        </mxCell>
        <mxCell id="tWReDUVrI50OzmOSi_4m-17" value="getPoints(user_id)" style="text;html=1;strokeColor=none;fillColor=none;align=center;verticalAlign=middle;whiteSpace=wrap;rounded=0;" parent="1" vertex="1">
          <mxGeometry x="407.5" y="170" width="140" height="30" as="geometry" />
        </mxCell>
        <mxCell id="tWReDUVrI50OzmOSi_4m-18" value="" style="endArrow=none;dashed=1;html=1;dashPattern=1 3;strokeWidth=2;rounded=0;" parent="1" edge="1">
          <mxGeometry width="50" height="50" relative="1" as="geometry">
            <mxPoint x="407.5" y="350" as="sourcePoint" />
            <mxPoint x="547.5" y="350" as="targetPoint" />
          </mxGeometry>
        </mxCell>
        <mxCell id="tWReDUVrI50OzmOSi_4m-19" value="" style="endArrow=none;html=1;rounded=0;" parent="1" edge="1">
          <mxGeometry width="50" height="50" relative="1" as="geometry">
            <mxPoint x="407.5" y="350" as="sourcePoint" />
            <mxPoint x="417.5" y="340" as="targetPoint" />
          </mxGeometry>
        </mxCell>
        <mxCell id="tWReDUVrI50OzmOSi_4m-20" value="" style="endArrow=none;html=1;rounded=0;" parent="1" edge="1">
          <mxGeometry width="50" height="50" relative="1" as="geometry">
            <mxPoint x="407.5" y="350" as="sourcePoint" />
            <mxPoint x="417.5" y="360" as="targetPoint" />
            <Array as="points">
              <mxPoint x="417.5" y="360" />
            </Array>
          </mxGeometry>
        </mxCell>
        <mxCell id="tWReDUVrI50OzmOSi_4m-21" value="return points: int" style="text;html=1;strokeColor=none;fillColor=none;align=center;verticalAlign=middle;whiteSpace=wrap;rounded=0;" parent="1" vertex="1">
          <mxGeometry x="431.25" y="350" width="92.5" height="30" as="geometry" />
        </mxCell>
        <mxCell id="iUg1BVsudGJwtlZ85fuI-5" value="" style="endArrow=classic;html=1;rounded=0;" parent="1" edge="1">
          <mxGeometry width="50" height="50" relative="1" as="geometry">
            <mxPoint x="260" y="150" as="sourcePoint" />
            <mxPoint x="410" y="150" as="targetPoint" />
          </mxGeometry>
        </mxCell>
        <mxCell id="rgo1GXWHupYOkGGVLEpd-1" value="View reward points" style="text;strokeColor=none;fillColor=none;html=1;fontSize=24;fontStyle=1;verticalAlign=middle;align=center;" vertex="1" parent="1">
          <mxGeometry x="364" y="20" width="100" height="40" as="geometry" />
        </mxCell>
      </root>
    </mxGraphModel>
  </diagram>
</mxfile>
